<mxfile host="app.diagrams.net" modified="2023-04-17T18:44:26.872Z" agent="Mozilla/5.0 (Windows NT 10.0; Win64; x64) AppleWebKit/537.36 (KHTML, like Gecko) Chrome/111.0.0.0 Safari/537.36" etag="qdWxcIMkQMBLxFvQA62w" version="21.1.8" type="github">
  <diagram name="Página-1" id="dXOoPCyqEUszRuWvDeEG">
    <mxGraphModel dx="625" dy="1722" grid="1" gridSize="10" guides="1" tooltips="1" connect="1" arrows="1" fold="1" page="1" pageScale="1" pageWidth="827" pageHeight="1169" math="0" shadow="0">
      <root>
        <mxCell id="0" />
        <mxCell id="1" parent="0" />
        <mxCell id="br8IEfC0l66BzFUmi0qX-1" value="Financeira" style="rounded=1;whiteSpace=wrap;html=1;labelBackgroundColor=none;fillColor=#F2CC8F;strokeColor=#E07A5F;fontColor=#393C56;fontFamily=Comic Sans MS;sketch=1;curveFitting=1;jiggle=2;" vertex="1" parent="1">
          <mxGeometry x="10" y="150" width="120" height="60" as="geometry" />
        </mxCell>
        <mxCell id="br8IEfC0l66BzFUmi0qX-17" style="edgeStyle=none;shape=connector;rounded=1;orthogonalLoop=1;jettySize=auto;html=1;entryX=0.5;entryY=0;entryDx=0;entryDy=0;labelBackgroundColor=none;strokeColor=#E07A5F;fontFamily=Comic Sans MS;fontSize=11;fontColor=default;endArrow=none;endFill=0;dashed=1;sketch=1;curveFitting=1;jiggle=2;" edge="1" parent="1" source="br8IEfC0l66BzFUmi0qX-2" target="br8IEfC0l66BzFUmi0qX-15">
          <mxGeometry relative="1" as="geometry" />
        </mxCell>
        <mxCell id="br8IEfC0l66BzFUmi0qX-2" value="Venda" style="rounded=1;whiteSpace=wrap;html=1;labelBackgroundColor=none;fillColor=#F2CC8F;strokeColor=#E07A5F;fontColor=#393C56;sketch=1;curveFitting=1;jiggle=2;" vertex="1" parent="1">
          <mxGeometry x="340" y="150" width="120" height="60" as="geometry" />
        </mxCell>
        <mxCell id="br8IEfC0l66BzFUmi0qX-7" style="rounded=1;orthogonalLoop=1;jettySize=auto;html=1;endArrow=none;endFill=0;labelBackgroundColor=none;strokeColor=#E07A5F;fontColor=default;fontFamily=Comic Sans MS;sketch=1;curveFitting=1;jiggle=2;" edge="1" parent="1" source="br8IEfC0l66BzFUmi0qX-3">
          <mxGeometry relative="1" as="geometry">
            <mxPoint x="240" y="240" as="targetPoint" />
          </mxGeometry>
        </mxCell>
        <mxCell id="br8IEfC0l66BzFUmi0qX-8" style="edgeStyle=none;shape=connector;rounded=1;orthogonalLoop=1;jettySize=auto;html=1;entryX=0.5;entryY=1;entryDx=0;entryDy=0;labelBackgroundColor=none;strokeColor=#E07A5F;fontFamily=Comic Sans MS;fontSize=11;fontColor=default;endArrow=none;endFill=0;sketch=1;curveFitting=1;jiggle=2;" edge="1" parent="1" source="br8IEfC0l66BzFUmi0qX-3">
          <mxGeometry relative="1" as="geometry">
            <mxPoint x="240" y="120" as="targetPoint" />
          </mxGeometry>
        </mxCell>
        <mxCell id="br8IEfC0l66BzFUmi0qX-9" style="edgeStyle=none;shape=connector;rounded=1;orthogonalLoop=1;jettySize=auto;html=1;labelBackgroundColor=none;strokeColor=#E07A5F;fontFamily=Comic Sans MS;fontSize=11;fontColor=default;endArrow=none;endFill=0;sketch=1;curveFitting=1;jiggle=2;" edge="1" parent="1" source="br8IEfC0l66BzFUmi0qX-3" target="br8IEfC0l66BzFUmi0qX-2">
          <mxGeometry relative="1" as="geometry" />
        </mxCell>
        <mxCell id="br8IEfC0l66BzFUmi0qX-12" value="(0,n)" style="edgeLabel;html=1;align=center;verticalAlign=middle;resizable=0;points=[];fontSize=11;fontFamily=Comic Sans MS;fontColor=#393C56;labelBackgroundColor=none;rounded=1;sketch=1;curveFitting=1;jiggle=2;" vertex="1" connectable="0" parent="br8IEfC0l66BzFUmi0qX-9">
          <mxGeometry x="0.0805" relative="1" as="geometry">
            <mxPoint as="offset" />
          </mxGeometry>
        </mxCell>
        <mxCell id="br8IEfC0l66BzFUmi0qX-10" style="edgeStyle=none;shape=connector;rounded=1;orthogonalLoop=1;jettySize=auto;html=1;entryX=1;entryY=0.5;entryDx=0;entryDy=0;labelBackgroundColor=none;strokeColor=#E07A5F;fontFamily=Comic Sans MS;fontSize=11;fontColor=default;endArrow=none;endFill=0;sketch=1;curveFitting=1;jiggle=2;" edge="1" parent="1" source="br8IEfC0l66BzFUmi0qX-3" target="br8IEfC0l66BzFUmi0qX-1">
          <mxGeometry relative="1" as="geometry" />
        </mxCell>
        <mxCell id="br8IEfC0l66BzFUmi0qX-13" value="(0,1)" style="edgeLabel;html=1;align=center;verticalAlign=middle;resizable=0;points=[];fontSize=11;fontFamily=Comic Sans MS;fontColor=#393C56;labelBackgroundColor=none;rounded=1;sketch=1;curveFitting=1;jiggle=2;" vertex="1" connectable="0" parent="br8IEfC0l66BzFUmi0qX-10">
          <mxGeometry x="-0.1678" relative="1" as="geometry">
            <mxPoint as="offset" />
          </mxGeometry>
        </mxCell>
        <mxCell id="br8IEfC0l66BzFUmi0qX-3" value="financiamento" style="shape=rhombus;perimeter=rhombusPerimeter;whiteSpace=wrap;html=1;align=center;labelBackgroundColor=none;fillColor=#F2CC8F;strokeColor=#E07A5F;fontColor=#393C56;fontFamily=Comic Sans MS;rounded=1;sketch=1;curveFitting=1;jiggle=2;" vertex="1" parent="1">
          <mxGeometry x="180" y="150" width="120" height="60" as="geometry" />
        </mxCell>
        <mxCell id="br8IEfC0l66BzFUmi0qX-15" value="juros" style="ellipse;shape=doubleEllipse;margin=3;whiteSpace=wrap;html=1;align=center;fontFamily=Comic Sans MS;fontSize=11;fontColor=#393C56;labelBackgroundColor=none;fillColor=#F2CC8F;strokeColor=#E07A5F;rounded=1;sketch=1;curveFitting=1;jiggle=2;" vertex="1" parent="1">
          <mxGeometry x="350" y="240" width="100" height="40" as="geometry" />
        </mxCell>
        <mxCell id="br8IEfC0l66BzFUmi0qX-18" style="edgeStyle=none;shape=connector;rounded=1;orthogonalLoop=1;jettySize=auto;html=1;entryX=0.5;entryY=0;entryDx=0;entryDy=0;labelBackgroundColor=none;strokeColor=#E07A5F;fontFamily=Comic Sans MS;fontSize=11;fontColor=default;endArrow=none;endFill=0;dashed=1;sketch=1;curveFitting=1;jiggle=2;" edge="1" parent="1" source="br8IEfC0l66BzFUmi0qX-16" target="br8IEfC0l66BzFUmi0qX-2">
          <mxGeometry relative="1" as="geometry" />
        </mxCell>
        <mxCell id="br8IEfC0l66BzFUmi0qX-16" value="parcelas" style="ellipse;shape=doubleEllipse;margin=3;whiteSpace=wrap;html=1;align=center;fontFamily=Comic Sans MS;fontSize=11;fontColor=#393C56;labelBackgroundColor=none;fillColor=#F2CC8F;strokeColor=#E07A5F;rounded=1;sketch=1;curveFitting=1;jiggle=2;" vertex="1" parent="1">
          <mxGeometry x="350" y="80" width="100" height="40" as="geometry" />
        </mxCell>
        <mxCell id="br8IEfC0l66BzFUmi0qX-20" style="edgeStyle=orthogonalEdgeStyle;shape=connector;rounded=1;orthogonalLoop=1;jettySize=auto;html=1;labelBackgroundColor=none;strokeColor=#E07A5F;fontFamily=Comic Sans MS;fontSize=11;fontColor=default;endArrow=classic;endFill=1;sketch=1;curveFitting=1;jiggle=2;" edge="1" parent="1" source="br8IEfC0l66BzFUmi0qX-19">
          <mxGeometry relative="1" as="geometry">
            <mxPoint x="400" y="70" as="targetPoint" />
          </mxGeometry>
        </mxCell>
        <mxCell id="br8IEfC0l66BzFUmi0qX-21" style="edgeStyle=orthogonalEdgeStyle;shape=connector;rounded=1;orthogonalLoop=1;jettySize=auto;html=1;labelBackgroundColor=none;strokeColor=#E07A5F;fontFamily=Comic Sans MS;fontSize=11;fontColor=default;endArrow=classic;endFill=1;sketch=1;curveFitting=1;jiggle=2;" edge="1" parent="1" source="br8IEfC0l66BzFUmi0qX-19">
          <mxGeometry relative="1" as="geometry">
            <mxPoint x="240" y="70" as="targetPoint" />
          </mxGeometry>
        </mxCell>
        <mxCell id="br8IEfC0l66BzFUmi0qX-19" value="duas possibilidades" style="text;strokeColor=none;fillColor=none;spacingLeft=4;spacingRight=4;overflow=hidden;rotatable=0;points=[[0,0.5],[1,0.5]];portConstraint=eastwest;fontSize=11;whiteSpace=wrap;html=1;fontFamily=Comic Sans MS;fontColor=#393C56;labelBackgroundColor=none;rounded=1;sketch=1;curveFitting=1;jiggle=2;" vertex="1" parent="1">
          <mxGeometry x="270" y="10" width="110" height="30" as="geometry" />
        </mxCell>
        <mxCell id="br8IEfC0l66BzFUmi0qX-27" style="edgeStyle=none;shape=connector;rounded=1;orthogonalLoop=1;jettySize=auto;html=1;entryX=0;entryY=0.5;entryDx=0;entryDy=0;labelBackgroundColor=none;strokeColor=#E07A5F;fontFamily=Comic Sans MS;fontSize=11;fontColor=default;endArrow=none;endFill=0;sketch=1;curveFitting=1;jiggle=2;" edge="1" parent="1">
          <mxGeometry relative="1" as="geometry">
            <mxPoint x="130" y="319.85" as="sourcePoint" />
            <mxPoint x="175" y="319.85" as="targetPoint" />
            <Array as="points">
              <mxPoint x="160" y="319.85" />
            </Array>
          </mxGeometry>
        </mxCell>
        <mxCell id="br8IEfC0l66BzFUmi0qX-30" value="(1,n)" style="edgeLabel;html=1;align=center;verticalAlign=middle;resizable=0;points=[];fontSize=11;fontFamily=Comic Sans MS;fontColor=#393C56;labelBackgroundColor=none;rounded=1;sketch=1;curveFitting=1;jiggle=2;" vertex="1" connectable="0" parent="br8IEfC0l66BzFUmi0qX-27">
          <mxGeometry x="0.1932" relative="1" as="geometry">
            <mxPoint x="-7" as="offset" />
          </mxGeometry>
        </mxCell>
        <mxCell id="br8IEfC0l66BzFUmi0qX-23" value="Médico" style="rounded=1;whiteSpace=wrap;html=1;fontFamily=Comic Sans MS;fontSize=11;fontColor=#393C56;labelBackgroundColor=none;fillColor=#F2CC8F;strokeColor=#E07A5F;sketch=1;curveFitting=1;jiggle=2;" vertex="1" parent="1">
          <mxGeometry x="10" y="290" width="120" height="60" as="geometry" />
        </mxCell>
        <mxCell id="br8IEfC0l66BzFUmi0qX-26" style="edgeStyle=none;shape=connector;rounded=1;orthogonalLoop=1;jettySize=auto;html=1;entryX=1;entryY=0.5;entryDx=0;entryDy=0;labelBackgroundColor=none;strokeColor=#E07A5F;fontFamily=Comic Sans MS;fontSize=11;fontColor=default;endArrow=none;endFill=0;sketch=1;curveFitting=1;jiggle=2;" edge="1" parent="1" source="br8IEfC0l66BzFUmi0qX-24" target="br8IEfC0l66BzFUmi0qX-25">
          <mxGeometry relative="1" as="geometry" />
        </mxCell>
        <mxCell id="br8IEfC0l66BzFUmi0qX-31" value="(0,n)" style="edgeLabel;html=1;align=center;verticalAlign=middle;resizable=0;points=[];fontSize=11;fontFamily=Comic Sans MS;fontColor=#393C56;labelBackgroundColor=none;rounded=1;sketch=1;curveFitting=1;jiggle=2;" vertex="1" connectable="0" parent="br8IEfC0l66BzFUmi0qX-26">
          <mxGeometry x="0.1932" y="1" relative="1" as="geometry">
            <mxPoint y="-1" as="offset" />
          </mxGeometry>
        </mxCell>
        <mxCell id="br8IEfC0l66BzFUmi0qX-24" value="Paciente" style="rounded=1;whiteSpace=wrap;html=1;fontFamily=Helvetica;fontSize=11;fontColor=#393C56;labelBackgroundColor=none;fillColor=#F2CC8F;strokeColor=#E07A5F;sketch=1;curveFitting=1;jiggle=2;" vertex="1" parent="1">
          <mxGeometry x="340" y="290" width="120" height="60" as="geometry" />
        </mxCell>
        <mxCell id="br8IEfC0l66BzFUmi0qX-29" style="edgeStyle=none;shape=connector;rounded=1;orthogonalLoop=1;jettySize=auto;html=1;entryX=0.5;entryY=0;entryDx=0;entryDy=0;labelBackgroundColor=none;strokeColor=#E07A5F;fontFamily=Comic Sans MS;fontSize=11;fontColor=default;endArrow=none;endFill=0;sketch=1;curveFitting=1;jiggle=2;" edge="1" parent="1" source="br8IEfC0l66BzFUmi0qX-25" target="br8IEfC0l66BzFUmi0qX-28">
          <mxGeometry relative="1" as="geometry" />
        </mxCell>
        <mxCell id="br8IEfC0l66BzFUmi0qX-25" value="consulta" style="shape=rhombus;perimeter=rhombusPerimeter;whiteSpace=wrap;html=1;align=center;labelBackgroundColor=none;fillColor=#F2CC8F;strokeColor=#E07A5F;fontColor=#393C56;fontFamily=Comic Sans MS;rounded=1;sketch=1;curveFitting=1;jiggle=2;" vertex="1" parent="1">
          <mxGeometry x="175" y="290" width="120" height="60" as="geometry" />
        </mxCell>
        <mxCell id="br8IEfC0l66BzFUmi0qX-28" value="data" style="ellipse;whiteSpace=wrap;html=1;align=center;fontFamily=Comic Sans MS;fontSize=11;fontColor=#393C56;labelBackgroundColor=none;fillColor=#F2CC8F;strokeColor=#E07A5F;rounded=1;fontStyle=4;sketch=1;curveFitting=1;jiggle=2;" vertex="1" parent="1">
          <mxGeometry x="185" y="360" width="100" height="40" as="geometry" />
        </mxCell>
        <mxCell id="br8IEfC0l66BzFUmi0qX-32" value="juros" style="ellipse;whiteSpace=wrap;html=1;align=center;fontFamily=Comic Sans MS;fontSize=11;fontColor=#393C56;labelBackgroundColor=none;fillColor=#F2CC8F;strokeColor=#E07A5F;rounded=1;sketch=1;curveFitting=1;jiggle=2;" vertex="1" parent="1">
          <mxGeometry x="190" y="240" width="100" height="40" as="geometry" />
        </mxCell>
        <mxCell id="br8IEfC0l66BzFUmi0qX-33" value="parcelas" style="ellipse;whiteSpace=wrap;html=1;align=center;fontFamily=Comic Sans MS;fontSize=11;fontColor=#393C56;labelBackgroundColor=none;fillColor=#F2CC8F;strokeColor=#E07A5F;rounded=1;sketch=1;curveFitting=1;jiggle=2;" vertex="1" parent="1">
          <mxGeometry x="190" y="80" width="100" height="40" as="geometry" />
        </mxCell>
        <mxCell id="br8IEfC0l66BzFUmi0qX-40" style="edgeStyle=none;shape=connector;rounded=1;orthogonalLoop=1;jettySize=auto;html=1;entryX=0;entryY=0.5;entryDx=0;entryDy=0;labelBackgroundColor=none;strokeColor=#E07A5F;fontFamily=Comic Sans MS;fontSize=11;fontColor=default;endArrow=none;endFill=0;sketch=1;curveFitting=1;jiggle=2;" edge="1" parent="1">
          <mxGeometry relative="1" as="geometry">
            <mxPoint x="130" y="519.85" as="sourcePoint" />
            <mxPoint x="175" y="519.85" as="targetPoint" />
            <Array as="points">
              <mxPoint x="160" y="519.85" />
            </Array>
          </mxGeometry>
        </mxCell>
        <mxCell id="br8IEfC0l66BzFUmi0qX-62" value="&lt;font face=&quot;Comic Sans MS&quot; style=&quot;font-size: 11px;&quot;&gt;(0,1)&lt;/font&gt;" style="edgeLabel;html=1;align=center;verticalAlign=middle;resizable=0;points=[];fontSize=11;fontFamily=Architects Daughter;fontColor=#393C56;labelBackgroundColor=none;" vertex="1" connectable="0" parent="br8IEfC0l66BzFUmi0qX-40">
          <mxGeometry x="0.0307" relative="1" as="geometry">
            <mxPoint as="offset" />
          </mxGeometry>
        </mxCell>
        <mxCell id="br8IEfC0l66BzFUmi0qX-60" style="edgeStyle=none;shape=connector;rounded=0;sketch=1;hachureGap=4;jiggle=2;curveFitting=1;orthogonalLoop=1;jettySize=auto;html=1;entryX=0.5;entryY=0;entryDx=0;entryDy=0;labelBackgroundColor=none;strokeColor=#E07A5F;fontFamily=Architects Daughter;fontSource=https%3A%2F%2Ffonts.googleapis.com%2Fcss%3Ffamily%3DArchitects%2BDaughter;fontSize=16;fontColor=default;endArrow=none;endFill=0;fillColor=#F2CC8F;" edge="1" parent="1" source="br8IEfC0l66BzFUmi0qX-42">
          <mxGeometry relative="1" as="geometry">
            <mxPoint x="70" y="590" as="targetPoint" />
          </mxGeometry>
        </mxCell>
        <mxCell id="br8IEfC0l66BzFUmi0qX-42" value="Grupo" style="rounded=1;whiteSpace=wrap;html=1;fontFamily=Comic Sans MS;fontSize=11;fontColor=#393C56;labelBackgroundColor=none;fillColor=#F2CC8F;strokeColor=#E07A5F;sketch=1;curveFitting=1;jiggle=2;" vertex="1" parent="1">
          <mxGeometry x="10" y="490" width="120" height="60" as="geometry" />
        </mxCell>
        <mxCell id="br8IEfC0l66BzFUmi0qX-43" style="edgeStyle=none;shape=connector;rounded=1;orthogonalLoop=1;jettySize=auto;html=1;entryX=1;entryY=0.5;entryDx=0;entryDy=0;labelBackgroundColor=none;strokeColor=#E07A5F;fontFamily=Comic Sans MS;fontSize=11;fontColor=default;endArrow=none;endFill=0;sketch=1;curveFitting=1;jiggle=2;" edge="1" parent="1">
          <mxGeometry relative="1" as="geometry">
            <mxPoint x="340" y="520" as="sourcePoint" />
            <mxPoint x="295.0000000000001" y="520" as="targetPoint" />
          </mxGeometry>
        </mxCell>
        <mxCell id="br8IEfC0l66BzFUmi0qX-44" value="(1,n)" style="edgeLabel;html=1;align=center;verticalAlign=middle;resizable=0;points=[];fontSize=12;fontFamily=Comic Sans MS;fontColor=#393C56;labelBackgroundColor=none;rounded=1;sketch=1;curveFitting=1;jiggle=2;" vertex="1" connectable="0" parent="br8IEfC0l66BzFUmi0qX-43">
          <mxGeometry x="0.1932" y="1" relative="1" as="geometry">
            <mxPoint x="3" y="-1" as="offset" />
          </mxGeometry>
        </mxCell>
        <mxCell id="br8IEfC0l66BzFUmi0qX-57" style="rounded=0;sketch=1;hachureGap=4;jiggle=2;curveFitting=1;orthogonalLoop=1;jettySize=auto;html=1;entryX=0;entryY=0.5;entryDx=0;entryDy=0;strokeColor=#E07A5F;fontFamily=Comic Sans MS;fontSize=12;fontColor=default;fillColor=#F2CC8F;endArrow=none;endFill=0;exitX=1;exitY=0.5;exitDx=0;exitDy=0;dashed=1;labelBackgroundColor=none;" edge="1" parent="1" source="br8IEfC0l66BzFUmi0qX-45" target="br8IEfC0l66BzFUmi0qX-76">
          <mxGeometry relative="1" as="geometry">
            <mxPoint x="490" y="520" as="targetPoint" />
          </mxGeometry>
        </mxCell>
        <mxCell id="br8IEfC0l66BzFUmi0qX-45" value="Empresa" style="rounded=1;whiteSpace=wrap;html=1;fontFamily=Comic Sans MS;fontSize=12;fontColor=#393C56;labelBackgroundColor=none;fillColor=#F2CC8F;strokeColor=#E07A5F;sketch=1;curveFitting=1;jiggle=2;" vertex="1" parent="1">
          <mxGeometry x="340" y="490" width="120" height="60" as="geometry" />
        </mxCell>
        <mxCell id="br8IEfC0l66BzFUmi0qX-46" value="formado" style="shape=rhombus;perimeter=rhombusPerimeter;whiteSpace=wrap;html=1;align=center;labelBackgroundColor=none;fillColor=#F2CC8F;strokeColor=#E07A5F;fontColor=#393C56;fontFamily=Comic Sans MS;rounded=1;sketch=1;curveFitting=1;jiggle=2;" vertex="1" parent="1">
          <mxGeometry x="175" y="490" width="120" height="60" as="geometry" />
        </mxCell>
        <mxCell id="br8IEfC0l66BzFUmi0qX-50" style="edgeStyle=none;shape=connector;rounded=1;orthogonalLoop=1;jettySize=auto;html=1;entryX=0.5;entryY=1;entryDx=0;entryDy=0;labelBackgroundColor=none;strokeColor=#E07A5F;fontFamily=Comic Sans MS;fontSize=12;fontColor=default;endArrow=none;endFill=0;sketch=1;curveFitting=1;jiggle=2;" edge="1" parent="1">
          <mxGeometry relative="1" as="geometry">
            <mxPoint x="400" y="680" as="sourcePoint" />
            <mxPoint x="400" y="640" as="targetPoint" />
          </mxGeometry>
        </mxCell>
        <mxCell id="br8IEfC0l66BzFUmi0qX-51" value="(0,n)" style="edgeLabel;html=1;align=center;verticalAlign=middle;resizable=0;points=[];fontSize=12;fontFamily=Comic Sans MS;fontColor=#393C56;labelBackgroundColor=none;rounded=1;sketch=1;curveFitting=1;jiggle=2;" vertex="1" connectable="0" parent="br8IEfC0l66BzFUmi0qX-50">
          <mxGeometry x="0.1932" y="1" relative="1" as="geometry">
            <mxPoint y="-1" as="offset" />
          </mxGeometry>
        </mxCell>
        <mxCell id="br8IEfC0l66BzFUmi0qX-61" style="edgeStyle=none;shape=connector;rounded=0;sketch=1;hachureGap=4;jiggle=2;curveFitting=1;orthogonalLoop=1;jettySize=auto;html=1;entryX=1;entryY=0.5;entryDx=0;entryDy=0;labelBackgroundColor=none;strokeColor=#E07A5F;fontFamily=Comic Sans MS;fontSize=12;fontColor=default;endArrow=none;endFill=0;fillColor=#F2CC8F;" edge="1" parent="1">
          <mxGeometry relative="1" as="geometry">
            <mxPoint x="350" y="700" as="sourcePoint" />
            <mxPoint x="329.9999999999991" y="700" as="targetPoint" />
          </mxGeometry>
        </mxCell>
        <mxCell id="br8IEfC0l66BzFUmi0qX-55" style="rounded=0;sketch=1;hachureGap=4;jiggle=2;curveFitting=1;orthogonalLoop=1;jettySize=auto;html=1;entryX=0.5;entryY=1;entryDx=0;entryDy=0;fontFamily=Comic Sans MS;fontSize=12;endArrow=none;endFill=0;fillColor=#F2CC8F;strokeColor=#E07A5F;labelBackgroundColor=none;fontColor=default;" edge="1" parent="1" target="br8IEfC0l66BzFUmi0qX-45">
          <mxGeometry relative="1" as="geometry">
            <mxPoint x="400" y="580" as="sourcePoint" />
          </mxGeometry>
        </mxCell>
        <mxCell id="br8IEfC0l66BzFUmi0qX-63" value="(1,1)" style="edgeLabel;html=1;align=center;verticalAlign=middle;resizable=0;points=[];fontSize=12;fontFamily=Comic Sans MS;fontColor=#393C56;labelBackgroundColor=none;" vertex="1" connectable="0" parent="br8IEfC0l66BzFUmi0qX-55">
          <mxGeometry x="0.4575" y="1" relative="1" as="geometry">
            <mxPoint y="7" as="offset" />
          </mxGeometry>
        </mxCell>
        <mxCell id="br8IEfC0l66BzFUmi0qX-68" style="edgeStyle=none;shape=connector;rounded=1;orthogonalLoop=1;jettySize=auto;html=1;entryX=0.5;entryY=1;entryDx=0;entryDy=0;labelBackgroundColor=none;strokeColor=#E07A5F;fontFamily=Comic Sans MS;fontSize=11;fontColor=default;endArrow=none;endFill=0;sketch=1;curveFitting=1;jiggle=2;" edge="1" parent="1">
          <mxGeometry relative="1" as="geometry">
            <mxPoint x="400" y="490" as="sourcePoint" />
            <mxPoint x="400" y="460" as="targetPoint" />
          </mxGeometry>
        </mxCell>
        <mxCell id="br8IEfC0l66BzFUmi0qX-69" value="nome" style="ellipse;whiteSpace=wrap;html=1;align=center;fontFamily=Comic Sans MS;fontSize=11;fontColor=#393C56;labelBackgroundColor=none;fillColor=#F2CC8F;strokeColor=#E07A5F;rounded=1;sketch=1;curveFitting=1;jiggle=2;" vertex="1" parent="1">
          <mxGeometry x="350" y="420" width="100" height="40" as="geometry" />
        </mxCell>
        <mxCell id="br8IEfC0l66BzFUmi0qX-70" style="edgeStyle=none;shape=connector;rounded=1;orthogonalLoop=1;jettySize=auto;html=1;entryX=0.5;entryY=1;entryDx=0;entryDy=0;labelBackgroundColor=none;strokeColor=#E07A5F;fontFamily=Comic Sans MS;fontSize=11;fontColor=default;endArrow=none;endFill=0;sketch=1;curveFitting=1;jiggle=2;" edge="1" parent="1">
          <mxGeometry relative="1" as="geometry">
            <mxPoint x="70" y="490" as="sourcePoint" />
            <mxPoint x="70" y="460" as="targetPoint" />
          </mxGeometry>
        </mxCell>
        <mxCell id="br8IEfC0l66BzFUmi0qX-71" value="nome" style="ellipse;whiteSpace=wrap;html=1;align=center;fontFamily=Comic Sans MS;fontSize=11;fontColor=#393C56;labelBackgroundColor=none;fillColor=#F2CC8F;strokeColor=#E07A5F;rounded=1;sketch=1;curveFitting=1;jiggle=2;" vertex="1" parent="1">
          <mxGeometry x="20" y="420" width="100" height="40" as="geometry" />
        </mxCell>
        <mxCell id="br8IEfC0l66BzFUmi0qX-72" value="Filial" style="shape=ext;margin=3;double=1;whiteSpace=wrap;html=1;align=center;sketch=1;hachureGap=4;jiggle=2;curveFitting=1;strokeColor=#E07A5F;fontFamily=Comic Sans MS;fontSize=12;fontColor=#393C56;fillColor=#F2CC8F;labelBackgroundColor=none;" vertex="1" parent="1">
          <mxGeometry x="350" y="680" width="100" height="40" as="geometry" />
        </mxCell>
        <mxCell id="br8IEfC0l66BzFUmi0qX-73" value="Possui" style="shape=rhombus;double=1;perimeter=rhombusPerimeter;whiteSpace=wrap;html=1;align=center;sketch=1;hachureGap=4;jiggle=2;curveFitting=1;strokeColor=#E07A5F;fontFamily=Comic Sans MS;fontSize=12;fontColor=#393C56;fillColor=#F2CC8F;labelBackgroundColor=none;" vertex="1" parent="1">
          <mxGeometry x="340" y="580" width="120" height="60" as="geometry" />
        </mxCell>
        <mxCell id="br8IEfC0l66BzFUmi0qX-76" value="sequência (U)" style="ellipse;whiteSpace=wrap;html=1;align=center;fontFamily=Comic Sans MS;fontSize=11;fontColor=#393C56;labelBackgroundColor=none;fillColor=#F2CC8F;strokeColor=#E07A5F;rounded=1;sketch=1;curveFitting=1;jiggle=2;fontStyle=0" vertex="1" parent="1">
          <mxGeometry x="490" y="470" width="100" height="40" as="geometry" />
        </mxCell>
        <mxCell id="br8IEfC0l66BzFUmi0qX-78" value="sequência" style="ellipse;whiteSpace=wrap;html=1;align=center;fontFamily=Comic Sans MS;fontSize=11;fontColor=#393C56;labelBackgroundColor=none;fillColor=#F2CC8F;strokeColor=#E07A5F;rounded=1;sketch=1;curveFitting=1;jiggle=2;fontStyle=4" vertex="1" parent="1">
          <mxGeometry x="230" y="680" width="100" height="40" as="geometry" />
        </mxCell>
        <mxCell id="br8IEfC0l66BzFUmi0qX-79" value="código" style="ellipse;whiteSpace=wrap;html=1;align=center;fontFamily=Comic Sans MS;fontSize=11;fontColor=#393C56;labelBackgroundColor=none;fillColor=#F2CC8F;strokeColor=#E07A5F;rounded=1;sketch=1;curveFitting=1;jiggle=2;fontStyle=4" vertex="1" parent="1">
          <mxGeometry x="20" y="590" width="100" height="40" as="geometry" />
        </mxCell>
        <mxCell id="br8IEfC0l66BzFUmi0qX-80" style="rounded=0;sketch=1;hachureGap=4;jiggle=2;curveFitting=1;orthogonalLoop=1;jettySize=auto;html=1;entryX=0;entryY=0.5;entryDx=0;entryDy=0;strokeColor=#E07A5F;fontFamily=Comic Sans MS;fontSize=12;fontColor=default;fillColor=#F2CC8F;endArrow=none;endFill=0;exitX=1;exitY=0.5;exitDx=0;exitDy=0;labelBackgroundColor=none;" edge="1" parent="1" target="br8IEfC0l66BzFUmi0qX-81">
          <mxGeometry relative="1" as="geometry">
            <mxPoint x="460" y="520" as="sourcePoint" />
            <mxPoint x="490" y="520" as="targetPoint" />
          </mxGeometry>
        </mxCell>
        <mxCell id="br8IEfC0l66BzFUmi0qX-81" value="cnpj" style="ellipse;whiteSpace=wrap;html=1;align=center;fontFamily=Comic Sans MS;fontSize=11;fontColor=#393C56;labelBackgroundColor=none;fillColor=#F2CC8F;strokeColor=#E07A5F;rounded=1;sketch=1;curveFitting=1;jiggle=2;fontStyle=4" vertex="1" parent="1">
          <mxGeometry x="490" y="530" width="100" height="40" as="geometry" />
        </mxCell>
      </root>
    </mxGraphModel>
  </diagram>
</mxfile>
